<mxfile host="65bd71144e">
    <diagram id="Adzndo520nHQM6ZiDX8f" name="Page-1">
        <mxGraphModel dx="1262" dy="545" grid="1" gridSize="10" guides="1" tooltips="1" connect="1" arrows="1" fold="1" page="1" pageScale="1" pageWidth="850" pageHeight="1100" math="0" shadow="0">
            <root>
                <mxCell id="0"/>
                <mxCell id="1" parent="0"/>
                <mxCell id="mQejqKUzmTbroIMbowvH-84" value="Admin Only Tinc: Supports ESET &amp;amp; Sync" style="rounded=1;whiteSpace=wrap;html=1;fillColor=#bac8d3;strokeColor=#23445d;verticalAlign=bottom;" parent="1" vertex="1">
                    <mxGeometry x="20" y="180" width="820" height="620" as="geometry"/>
                </mxCell>
                <mxCell id="mQejqKUzmTbroIMbowvH-53" value="Tinc" style="rounded=1;whiteSpace=wrap;html=1;fillColor=#f5f5f5;strokeColor=#666666;fontColor=#333333;verticalAlign=top;" parent="1" vertex="1">
                    <mxGeometry x="120" y="200" width="320" height="360" as="geometry"/>
                </mxCell>
                <mxCell id="mQejqKUzmTbroIMbowvH-52" value="Tinc" style="rounded=1;whiteSpace=wrap;html=1;fillColor=#f5f5f5;strokeColor=#666666;fontColor=#333333;verticalAlign=bottom;" parent="1" vertex="1">
                    <mxGeometry x="40" y="590" width="760" height="170" as="geometry"/>
                </mxCell>
                <mxCell id="mQejqKUzmTbroIMbowvH-34" value="Tinc" style="rounded=1;whiteSpace=wrap;html=1;fillColor=#f5f5f5;strokeColor=#666666;fontColor=#333333;verticalAlign=top;" parent="1" vertex="1">
                    <mxGeometry x="480" y="200" width="320" height="360" as="geometry"/>
                </mxCell>
                <mxCell id="mQejqKUzmTbroIMbowvH-11" value="Kubernetes" style="rounded=0;whiteSpace=wrap;html=1;fillColor=#dae8fc;strokeColor=#6c8ebf;" parent="1" vertex="1">
                    <mxGeometry x="40" y="560" width="760" height="40" as="geometry"/>
                </mxCell>
                <mxCell id="mQejqKUzmTbroIMbowvH-37" style="edgeStyle=orthogonalEdgeStyle;rounded=0;orthogonalLoop=1;jettySize=auto;html=1;exitX=0.5;exitY=1;exitDx=0;exitDy=0;entryX=0.25;entryY=0;entryDx=0;entryDy=0;" parent="1" source="mQejqKUzmTbroIMbowvH-1" target="mQejqKUzmTbroIMbowvH-22" edge="1">
                    <mxGeometry relative="1" as="geometry"/>
                </mxCell>
                <mxCell id="mQejqKUzmTbroIMbowvH-1" value="&lt;div&gt;VPS&lt;/div&gt;$12" style="rounded=0;whiteSpace=wrap;html=1;fillColor=#f8cecc;strokeColor=#b85450;" parent="1" vertex="1">
                    <mxGeometry x="680" y="260" width="120" height="60" as="geometry"/>
                </mxCell>
                <mxCell id="mQejqKUzmTbroIMbowvH-2" value="&lt;div&gt;Entrypoint&lt;/div&gt;" style="rounded=0;whiteSpace=wrap;html=1;fillColor=#fff2cc;strokeColor=#d6b656;" parent="1" vertex="1">
                    <mxGeometry x="680" y="200" width="120" height="60" as="geometry"/>
                </mxCell>
                <mxCell id="mQejqKUzmTbroIMbowvH-3" value="&lt;div&gt;Entrypoint&lt;/div&gt;" style="rounded=0;whiteSpace=wrap;html=1;fillColor=#fff2cc;strokeColor=#d6b656;" parent="1" vertex="1">
                    <mxGeometry x="480" y="200" width="120" height="60" as="geometry"/>
                </mxCell>
                <mxCell id="mQejqKUzmTbroIMbowvH-36" style="edgeStyle=orthogonalEdgeStyle;rounded=0;orthogonalLoop=1;jettySize=auto;html=1;exitX=0.5;exitY=1;exitDx=0;exitDy=0;entryX=0.25;entryY=0;entryDx=0;entryDy=0;" parent="1" source="mQejqKUzmTbroIMbowvH-4" target="mQejqKUzmTbroIMbowvH-22" edge="1">
                    <mxGeometry relative="1" as="geometry"/>
                </mxCell>
                <mxCell id="mQejqKUzmTbroIMbowvH-4" value="&lt;div&gt;Dream Compute&lt;/div&gt;&lt;div&gt;Instance&lt;/div&gt;&lt;div&gt;$24&lt;br&gt;&lt;/div&gt;" style="rounded=0;whiteSpace=wrap;html=1;fillColor=#f8cecc;strokeColor=#b85450;" parent="1" vertex="1">
                    <mxGeometry x="480" y="260" width="120" height="60" as="geometry"/>
                </mxCell>
                <mxCell id="mQejqKUzmTbroIMbowvH-5" value="&lt;div&gt;Dedicated&lt;/div&gt;$115" style="rounded=0;whiteSpace=wrap;html=1;fillColor=#d5e8d4;strokeColor=#82b366;" parent="1" vertex="1">
                    <mxGeometry x="400" y="660" width="160" height="60" as="geometry"/>
                </mxCell>
                <mxCell id="mQejqKUzmTbroIMbowvH-6" value="&lt;div&gt;K8s Worker&lt;/div&gt;" style="rounded=0;whiteSpace=wrap;html=1;fillColor=#fff2cc;strokeColor=#d6b656;" parent="1" vertex="1">
                    <mxGeometry x="400" y="600" width="120" height="60" as="geometry"/>
                </mxCell>
                <mxCell id="mQejqKUzmTbroIMbowvH-7" value="&lt;div&gt;K8s Control&lt;/div&gt;" style="rounded=0;whiteSpace=wrap;html=1;fillColor=#fff2cc;strokeColor=#d6b656;" parent="1" vertex="1">
                    <mxGeometry x="40" y="600" width="120" height="60" as="geometry"/>
                </mxCell>
                <mxCell id="mQejqKUzmTbroIMbowvH-8" value="&lt;div&gt;VPS&lt;/div&gt;$12" style="rounded=0;whiteSpace=wrap;html=1;fillColor=#f8cecc;strokeColor=#b85450;" parent="1" vertex="1">
                    <mxGeometry x="40" y="660" width="120" height="60" as="geometry"/>
                </mxCell>
                <mxCell id="mQejqKUzmTbroIMbowvH-9" value="&lt;div&gt;Dedicated&lt;/div&gt;$115" style="rounded=0;whiteSpace=wrap;html=1;fillColor=#d5e8d4;strokeColor=#82b366;" parent="1" vertex="1">
                    <mxGeometry x="640" y="660" width="160" height="60" as="geometry"/>
                </mxCell>
                <mxCell id="mQejqKUzmTbroIMbowvH-10" value="&lt;div&gt;K8s Worker&lt;/div&gt;" style="rounded=0;whiteSpace=wrap;html=1;fillColor=#fff2cc;strokeColor=#d6b656;" parent="1" vertex="1">
                    <mxGeometry x="640" y="600" width="120" height="60" as="geometry"/>
                </mxCell>
                <mxCell id="mQejqKUzmTbroIMbowvH-13" value="KubeVirt img_host" style="rounded=0;whiteSpace=wrap;html=1;fillColor=#e1d5e7;strokeColor=#9673a6;" parent="1" vertex="1">
                    <mxGeometry x="40" y="520" width="80" height="40" as="geometry"/>
                </mxCell>
                <mxCell id="mQejqKUzmTbroIMbowvH-14" value="KubeVirt img_host" style="rounded=0;whiteSpace=wrap;html=1;fillColor=#e1d5e7;strokeColor=#9673a6;" parent="1" vertex="1">
                    <mxGeometry x="640" y="520" width="80" height="40" as="geometry"/>
                </mxCell>
                <mxCell id="mQejqKUzmTbroIMbowvH-15" value="ESET SMC" style="rounded=0;whiteSpace=wrap;html=1;fillColor=#fff2cc;strokeColor=#d6b656;gradientColor=#ffd966;" parent="1" vertex="1">
                    <mxGeometry x="40" y="480" width="80" height="40" as="geometry"/>
                </mxCell>
                <mxCell id="mQejqKUzmTbroIMbowvH-16" value="K8s Worker" style="rounded=0;whiteSpace=wrap;html=1;fillColor=#fff2cc;strokeColor=#d6b656;" parent="1" vertex="1">
                    <mxGeometry x="640" y="480" width="80" height="40" as="geometry"/>
                </mxCell>
                <mxCell id="mQejqKUzmTbroIMbowvH-17" value="KubeVirt img_host" style="rounded=0;whiteSpace=wrap;html=1;fillColor=#e1d5e7;strokeColor=#9673a6;" parent="1" vertex="1">
                    <mxGeometry x="560" y="520" width="80" height="40" as="geometry"/>
                </mxCell>
                <mxCell id="mQejqKUzmTbroIMbowvH-18" value="K8s Worker" style="rounded=0;whiteSpace=wrap;html=1;fillColor=#fff2cc;strokeColor=#d6b656;" parent="1" vertex="1">
                    <mxGeometry x="560" y="480" width="80" height="40" as="geometry"/>
                </mxCell>
                <mxCell id="mQejqKUzmTbroIMbowvH-19" value="KubeVirt img_host" style="rounded=0;whiteSpace=wrap;html=1;fillColor=#e1d5e7;strokeColor=#9673a6;" parent="1" vertex="1">
                    <mxGeometry x="480" y="520" width="80" height="40" as="geometry"/>
                </mxCell>
                <mxCell id="mQejqKUzmTbroIMbowvH-20" value="K8s Control" style="rounded=0;whiteSpace=wrap;html=1;fillColor=#fff2cc;strokeColor=#d6b656;" parent="1" vertex="1">
                    <mxGeometry x="480" y="480" width="80" height="40" as="geometry"/>
                </mxCell>
                <mxCell id="mQejqKUzmTbroIMbowvH-39" style="edgeStyle=orthogonalEdgeStyle;rounded=0;orthogonalLoop=1;jettySize=auto;html=1;exitX=0.75;exitY=0;exitDx=0;exitDy=0;entryX=0.5;entryY=0;entryDx=0;entryDy=0;" parent="1" source="mQejqKUzmTbroIMbowvH-22" target="mQejqKUzmTbroIMbowvH-28" edge="1">
                    <mxGeometry relative="1" as="geometry"/>
                </mxCell>
                <mxCell id="mQejqKUzmTbroIMbowvH-40" style="edgeStyle=orthogonalEdgeStyle;rounded=0;orthogonalLoop=1;jettySize=auto;html=1;exitX=0.75;exitY=0;exitDx=0;exitDy=0;entryX=0.5;entryY=0;entryDx=0;entryDy=0;" parent="1" source="mQejqKUzmTbroIMbowvH-22" target="mQejqKUzmTbroIMbowvH-29" edge="1">
                    <mxGeometry relative="1" as="geometry"/>
                </mxCell>
                <mxCell id="mQejqKUzmTbroIMbowvH-41" style="edgeStyle=orthogonalEdgeStyle;rounded=0;orthogonalLoop=1;jettySize=auto;html=1;exitX=0.75;exitY=0;exitDx=0;exitDy=0;entryX=0.5;entryY=0;entryDx=0;entryDy=0;" parent="1" source="mQejqKUzmTbroIMbowvH-22" target="mQejqKUzmTbroIMbowvH-30" edge="1">
                    <mxGeometry relative="1" as="geometry"/>
                </mxCell>
                <mxCell id="mQejqKUzmTbroIMbowvH-22" value="Traefik" style="rounded=0;whiteSpace=wrap;html=1;fillColor=#fff2cc;strokeColor=#d6b656;" parent="1" vertex="1">
                    <mxGeometry x="480" y="400" width="80" height="40" as="geometry"/>
                </mxCell>
                <mxCell id="mQejqKUzmTbroIMbowvH-23" value="Kubernetes" style="rounded=0;whiteSpace=wrap;html=1;fillColor=#dae8fc;strokeColor=#6c8ebf;" parent="1" vertex="1">
                    <mxGeometry x="480" y="440" width="320" height="40" as="geometry"/>
                </mxCell>
                <mxCell id="mQejqKUzmTbroIMbowvH-24" value="Sync" style="rounded=0;whiteSpace=wrap;html=1;fillColor=#e6d0de;strokeColor=#996185;gradientColor=#d5739d;" parent="1" vertex="1">
                    <mxGeometry x="520" y="640" width="40" height="20" as="geometry"/>
                </mxCell>
                <mxCell id="mQejqKUzmTbroIMbowvH-25" value="Sync" style="rounded=0;whiteSpace=wrap;html=1;fillColor=#e6d0de;strokeColor=#996185;gradientColor=#d5739d;" parent="1" vertex="1">
                    <mxGeometry x="760" y="640" width="40" height="20" as="geometry"/>
                </mxCell>
                <mxCell id="mQejqKUzmTbroIMbowvH-26" value="ESET" style="rounded=0;whiteSpace=wrap;html=1;fillColor=#fff2cc;strokeColor=#d6b656;gradientColor=#ffd966;" parent="1" vertex="1">
                    <mxGeometry x="520" y="600" width="40" height="40" as="geometry"/>
                </mxCell>
                <mxCell id="mQejqKUzmTbroIMbowvH-27" value="ESET" style="rounded=0;whiteSpace=wrap;html=1;fillColor=#fff2cc;strokeColor=#d6b656;gradientColor=#ffd966;" parent="1" vertex="1">
                    <mxGeometry x="760" y="600" width="40" height="40" as="geometry"/>
                </mxCell>
                <mxCell id="mQejqKUzmTbroIMbowvH-28" value="Wordpress" style="rounded=0;whiteSpace=wrap;html=1;fillColor=#fff2cc;strokeColor=#d6b656;" parent="1" vertex="1">
                    <mxGeometry x="560" y="400" width="80" height="40" as="geometry"/>
                </mxCell>
                <mxCell id="mQejqKUzmTbroIMbowvH-29" value="Wordpress" style="rounded=0;whiteSpace=wrap;html=1;fillColor=#fff2cc;strokeColor=#d6b656;" parent="1" vertex="1">
                    <mxGeometry x="640" y="400" width="80" height="40" as="geometry"/>
                </mxCell>
                <mxCell id="mQejqKUzmTbroIMbowvH-66" style="edgeStyle=orthogonalEdgeStyle;rounded=0;orthogonalLoop=1;jettySize=auto;html=1;exitX=1;exitY=0.5;exitDx=0;exitDy=0;entryX=0.96;entryY=0.7;entryDx=0;entryDy=0;entryPerimeter=0;" parent="1" source="mQejqKUzmTbroIMbowvH-30" target="mQejqKUzmTbroIMbowvH-59" edge="1">
                    <mxGeometry relative="1" as="geometry">
                        <Array as="points">
                            <mxPoint x="820" y="420"/>
                            <mxPoint x="820" y="96"/>
                        </Array>
                    </mxGeometry>
                </mxCell>
                <mxCell id="mQejqKUzmTbroIMbowvH-30" value="Wordpress" style="rounded=0;whiteSpace=wrap;html=1;fillColor=#fff2cc;strokeColor=#d6b656;" parent="1" vertex="1">
                    <mxGeometry x="720" y="400" width="80" height="40" as="geometry"/>
                </mxCell>
                <mxCell id="mQejqKUzmTbroIMbowvH-31" value="KubeVirt img_host" style="rounded=0;whiteSpace=wrap;html=1;fillColor=#e1d5e7;strokeColor=#9673a6;" parent="1" vertex="1">
                    <mxGeometry x="720" y="520" width="80" height="40" as="geometry"/>
                </mxCell>
                <mxCell id="mQejqKUzmTbroIMbowvH-32" value="K8s Worker" style="rounded=0;whiteSpace=wrap;html=1;fillColor=#fff2cc;strokeColor=#d6b656;" parent="1" vertex="1">
                    <mxGeometry x="720" y="480" width="80" height="40" as="geometry"/>
                </mxCell>
                <mxCell id="mQejqKUzmTbroIMbowvH-43" value="KubeVirt img_host" style="rounded=0;whiteSpace=wrap;html=1;fillColor=#e1d5e7;strokeColor=#9673a6;" parent="1" vertex="1">
                    <mxGeometry x="280" y="520" width="80" height="40" as="geometry"/>
                </mxCell>
                <mxCell id="mQejqKUzmTbroIMbowvH-44" value="K8s Worker" style="rounded=0;whiteSpace=wrap;html=1;fillColor=#fff2cc;strokeColor=#d6b656;" parent="1" vertex="1">
                    <mxGeometry x="280" y="480" width="80" height="40" as="geometry"/>
                </mxCell>
                <mxCell id="mQejqKUzmTbroIMbowvH-45" value="KubeVirt img_host" style="rounded=0;whiteSpace=wrap;html=1;fillColor=#e1d5e7;strokeColor=#9673a6;" parent="1" vertex="1">
                    <mxGeometry x="200" y="520" width="80" height="40" as="geometry"/>
                </mxCell>
                <mxCell id="mQejqKUzmTbroIMbowvH-46" value="K8s Worker" style="rounded=0;whiteSpace=wrap;html=1;fillColor=#fff2cc;strokeColor=#d6b656;" parent="1" vertex="1">
                    <mxGeometry x="200" y="480" width="80" height="40" as="geometry"/>
                </mxCell>
                <mxCell id="mQejqKUzmTbroIMbowvH-47" value="KubeVirt img_host" style="rounded=0;whiteSpace=wrap;html=1;fillColor=#e1d5e7;strokeColor=#9673a6;" parent="1" vertex="1">
                    <mxGeometry x="120" y="520" width="80" height="40" as="geometry"/>
                </mxCell>
                <mxCell id="mQejqKUzmTbroIMbowvH-48" value="K8s Control" style="rounded=0;whiteSpace=wrap;html=1;fillColor=#fff2cc;strokeColor=#d6b656;" parent="1" vertex="1">
                    <mxGeometry x="120" y="480" width="80" height="40" as="geometry"/>
                </mxCell>
                <mxCell id="mQejqKUzmTbroIMbowvH-49" value="Kubernetes" style="rounded=0;whiteSpace=wrap;html=1;fillColor=#dae8fc;strokeColor=#6c8ebf;" parent="1" vertex="1">
                    <mxGeometry x="120" y="440" width="320" height="40" as="geometry"/>
                </mxCell>
                <mxCell id="mQejqKUzmTbroIMbowvH-50" value="KubeVirt img_host" style="rounded=0;whiteSpace=wrap;html=1;fillColor=#e1d5e7;strokeColor=#9673a6;" parent="1" vertex="1">
                    <mxGeometry x="360" y="520" width="80" height="40" as="geometry"/>
                </mxCell>
                <mxCell id="mQejqKUzmTbroIMbowvH-51" value="K8s Worker" style="rounded=0;whiteSpace=wrap;html=1;fillColor=#fff2cc;strokeColor=#d6b656;" parent="1" vertex="1">
                    <mxGeometry x="360" y="480" width="80" height="40" as="geometry"/>
                </mxCell>
                <mxCell id="mQejqKUzmTbroIMbowvH-57" style="edgeStyle=orthogonalEdgeStyle;rounded=0;orthogonalLoop=1;jettySize=auto;html=1;exitX=0.75;exitY=0;exitDx=0;exitDy=0;entryX=0.5;entryY=0;entryDx=0;entryDy=0;" parent="1" source="mQejqKUzmTbroIMbowvH-54" target="mQejqKUzmTbroIMbowvH-55" edge="1">
                    <mxGeometry relative="1" as="geometry"/>
                </mxCell>
                <mxCell id="mQejqKUzmTbroIMbowvH-58" style="edgeStyle=orthogonalEdgeStyle;rounded=0;orthogonalLoop=1;jettySize=auto;html=1;exitX=0.75;exitY=0;exitDx=0;exitDy=0;entryX=0.5;entryY=0;entryDx=0;entryDy=0;" parent="1" source="mQejqKUzmTbroIMbowvH-54" target="mQejqKUzmTbroIMbowvH-56" edge="1">
                    <mxGeometry relative="1" as="geometry"/>
                </mxCell>
                <mxCell id="mQejqKUzmTbroIMbowvH-54" value="Traefik" style="rounded=0;whiteSpace=wrap;html=1;fillColor=#fff2cc;strokeColor=#d6b656;" parent="1" vertex="1">
                    <mxGeometry x="120" y="400" width="80" height="40" as="geometry"/>
                </mxCell>
                <mxCell id="mQejqKUzmTbroIMbowvH-55" value="____" style="rounded=0;whiteSpace=wrap;html=1;fillColor=#fff2cc;strokeColor=#d6b656;" parent="1" vertex="1">
                    <mxGeometry x="240" y="400" width="80" height="40" as="geometry"/>
                </mxCell>
                <mxCell id="mQejqKUzmTbroIMbowvH-56" value="____" style="rounded=0;whiteSpace=wrap;html=1;fillColor=#fff2cc;strokeColor=#d6b656;" parent="1" vertex="1">
                    <mxGeometry x="360" y="400" width="80" height="40" as="geometry"/>
                </mxCell>
                <mxCell id="mQejqKUzmTbroIMbowvH-64" style="edgeStyle=orthogonalEdgeStyle;rounded=0;orthogonalLoop=1;jettySize=auto;html=1;exitX=0.55;exitY=0.95;exitDx=0;exitDy=0;exitPerimeter=0;entryX=0.5;entryY=0;entryDx=0;entryDy=0;" parent="1" source="mQejqKUzmTbroIMbowvH-59" target="mQejqKUzmTbroIMbowvH-3" edge="1">
                    <mxGeometry relative="1" as="geometry"/>
                </mxCell>
                <mxCell id="mQejqKUzmTbroIMbowvH-65" style="edgeStyle=orthogonalEdgeStyle;rounded=0;orthogonalLoop=1;jettySize=auto;html=1;exitX=0.55;exitY=0.95;exitDx=0;exitDy=0;exitPerimeter=0;entryX=0.5;entryY=0;entryDx=0;entryDy=0;" parent="1" source="mQejqKUzmTbroIMbowvH-59" target="mQejqKUzmTbroIMbowvH-2" edge="1">
                    <mxGeometry relative="1" as="geometry"/>
                </mxCell>
                <mxCell id="mQejqKUzmTbroIMbowvH-59" value="Outside" style="ellipse;shape=cloud;whiteSpace=wrap;html=1;" parent="1" vertex="1">
                    <mxGeometry x="520" y="40" width="240" height="80" as="geometry"/>
                </mxCell>
                <mxCell id="mQejqKUzmTbroIMbowvH-70" style="edgeStyle=orthogonalEdgeStyle;rounded=0;orthogonalLoop=1;jettySize=auto;html=1;exitX=0.5;exitY=1;exitDx=0;exitDy=0;entryX=0.25;entryY=0;entryDx=0;entryDy=0;" parent="1" source="mQejqKUzmTbroIMbowvH-67" target="mQejqKUzmTbroIMbowvH-54" edge="1">
                    <mxGeometry relative="1" as="geometry"/>
                </mxCell>
                <mxCell id="mQejqKUzmTbroIMbowvH-67" value="Admin" style="rounded=0;whiteSpace=wrap;html=1;fillColor=#d5e8d4;strokeColor=#82b366;" parent="1" vertex="1">
                    <mxGeometry x="140" y="250" width="120" height="60" as="geometry"/>
                </mxCell>
                <mxCell id="mQejqKUzmTbroIMbowvH-71" style="edgeStyle=orthogonalEdgeStyle;rounded=0;orthogonalLoop=1;jettySize=auto;html=1;exitX=0.5;exitY=1;exitDx=0;exitDy=0;entryX=0.25;entryY=0;entryDx=0;entryDy=0;" parent="1" source="mQejqKUzmTbroIMbowvH-69" target="mQejqKUzmTbroIMbowvH-54" edge="1">
                    <mxGeometry relative="1" as="geometry"/>
                </mxCell>
                <mxCell id="mQejqKUzmTbroIMbowvH-69" value="Admin" style="rounded=0;whiteSpace=wrap;html=1;fillColor=#d5e8d4;strokeColor=#82b366;" parent="1" vertex="1">
                    <mxGeometry x="300" y="250" width="120" height="60" as="geometry"/>
                </mxCell>
                <mxCell id="mQejqKUzmTbroIMbowvH-73" value="ESET" style="rounded=0;whiteSpace=wrap;html=1;fillColor=#fff2cc;strokeColor=#d6b656;gradientColor=#ffd966;" parent="1" vertex="1">
                    <mxGeometry x="560" y="200" width="40" height="20" as="geometry"/>
                </mxCell>
                <mxCell id="mQejqKUzmTbroIMbowvH-74" value="ESET" style="rounded=0;whiteSpace=wrap;html=1;fillColor=#fff2cc;strokeColor=#d6b656;gradientColor=#ffd966;" parent="1" vertex="1">
                    <mxGeometry x="760" y="200" width="40" height="20" as="geometry"/>
                </mxCell>
                <mxCell id="mQejqKUzmTbroIMbowvH-75" value="All yellow are img_guest and mount gdrive via rclone" style="rounded=0;whiteSpace=wrap;html=1;fillColor=#fff2cc;strokeColor=#d6b656;" parent="1" vertex="1">
                    <mxGeometry x="40" y="10" width="120" height="60" as="geometry"/>
                </mxCell>
                <mxCell id="mQejqKUzmTbroIMbowvH-76" value="All ESET containers connect via tinc" style="rounded=0;whiteSpace=wrap;html=1;fillColor=#fff2cc;strokeColor=#d6b656;gradientColor=#ffd966;" parent="1" vertex="1">
                    <mxGeometry x="200" y="10" width="120" height="60" as="geometry"/>
                </mxCell>
                <mxCell id="mQejqKUzmTbroIMbowvH-77" value="All Sync containers use syncthing over tinc and import gdrive" style="rounded=0;whiteSpace=wrap;html=1;fillColor=#e6d0de;strokeColor=#996185;gradientColor=#d5739d;" parent="1" vertex="1">
                    <mxGeometry x="360" y="10" width="120" height="60" as="geometry"/>
                </mxCell>
                <mxCell id="mQejqKUzmTbroIMbowvH-81" value="Backup" style="edgeStyle=orthogonalEdgeStyle;rounded=0;orthogonalLoop=1;jettySize=auto;html=1;exitX=1;exitY=0.5;exitDx=0;exitDy=0;entryX=0.5;entryY=1;entryDx=0;entryDy=0;" parent="1" source="mQejqKUzmTbroIMbowvH-78" target="mQejqKUzmTbroIMbowvH-77" edge="1">
                    <mxGeometry relative="1" as="geometry"/>
                </mxCell>
                <mxCell id="mQejqKUzmTbroIMbowvH-78" value="Google Drive" style="rounded=0;whiteSpace=wrap;html=1;fillColor=#b1ddf0;strokeColor=#10739e;" parent="1" vertex="1">
                    <mxGeometry x="200" y="110" width="120" height="60" as="geometry"/>
                </mxCell>
                <mxCell id="mQejqKUzmTbroIMbowvH-80" value="Sync to and from" style="endArrow=classic;startArrow=classic;html=1;rounded=0;entryX=0.5;entryY=1;entryDx=0;entryDy=0;exitX=0;exitY=0.5;exitDx=0;exitDy=0;" parent="1" source="mQejqKUzmTbroIMbowvH-78" target="mQejqKUzmTbroIMbowvH-75" edge="1">
                    <mxGeometry width="50" height="50" relative="1" as="geometry">
                        <mxPoint x="400" y="370" as="sourcePoint"/>
                        <mxPoint x="450" y="320" as="targetPoint"/>
                        <Array as="points">
                            <mxPoint x="100" y="140"/>
                        </Array>
                    </mxGeometry>
                </mxCell>
                <mxCell id="mQejqKUzmTbroIMbowvH-86" value="Scan" style="curved=1;endArrow=classic;html=1;rounded=0;exitX=1;exitY=0.5;exitDx=0;exitDy=0;entryX=1;entryY=0;entryDx=0;entryDy=0;labelPosition=left;verticalLabelPosition=middle;align=right;verticalAlign=middle;startArrow=classic;startFill=1;" parent="1" edge="1">
                    <mxGeometry width="50" height="50" relative="1" as="geometry">
                        <mxPoint x="320" y="42" as="sourcePoint"/>
                        <mxPoint x="320" y="112" as="targetPoint"/>
                        <Array as="points">
                            <mxPoint x="360" y="42"/>
                            <mxPoint x="360" y="112"/>
                        </Array>
                    </mxGeometry>
                </mxCell>
            </root>
        </mxGraphModel>
    </diagram>
</mxfile>